PathFileType	4	(X/Y/Z)	C:/Users/opensim2020/Desktop/walking_exp_matlab/subject02_walking07_straight_02.trc	
DataRate	CameraRate	NumFrames	NumMarkers	Units	OrigDataRate	OrigDataStartFrame	OrigNumFrames	
100.00	100.00	6	50	mm	100.00	1383	210	
Frame#	Time	LFHD			RFHD			LBHD			RBHD			C7			T10			CLAV			STRN			RBAK			LSHO			LUPA			LELB			LFRM			LWRA			LWRB			LFIN			RSHO			RUPA			RELB			RFRM			RWRA			RWRB			RFIN			LASI			RASI			LPSI			RPSI			LTHI			LKNE			LTIB			LANK			LHEE			LTOE			RTHI			RKNE			RTIB			RANK			RHEE			RTOE			*39			*40			*41			*42			*43			*44			*45			*46			*47			*48			*49			
		X1	Y1	Z1	X2	Y2	Z2	X3	Y3	Z3	X4	Y4	Z4	X5	Y5	Z5	X6	Y6	Z6	X7	Y7	Z7	X8	Y8	Z8	X9	Y9	Z9	X10	Y10	Z10	X11	Y11	Z11	X12	Y12	Z12	X13	Y13	Z13	X14	Y14	Z14	X15	Y15	Z15	X16	Y16	Z16	X17	Y17	Z17	X18	Y18	Z18	X19	Y19	Z19	X20	Y20	Z20	X21	Y21	Z21	X22	Y22	Z22	X23	Y23	Z23	X24	Y24	Z24	X25	Y25	Z25	X26	Y26	Z26	X27	Y27	Z27	X28	Y28	Z28	X29	Y29	Z29	X30	Y30	Z30	X31	Y31	Z31	X32	Y32	Z32	X33	Y33	Z33	X34	Y34	Z34	X35	Y35	Z35	X36	Y36	Z36	X37	Y37	Z37	X38	Y38	Z38	X39	Y39	Z39	X40	Y40	Z40	X41	Y41	Z41	X42	Y42	Z42	X43	Y43	Z43	X44	Y44	Z44	X45	Y45	Z45	X46	Y46	Z46	X47	Y47	Z47	X48	Y48	Z48	X49	Y49	Z49	X50	Y50	Z50	

53	0.520	-890.75024	285.21469	1749.25037	-1033.22803	298.25763	1731.86243	-871.12683	414.97153	1675.30054	-1011.46063	440.29968	1656.53186	-937.44562	474.43710	1532.93018	-945.72571	522.82758	1256.73987	-940.45563	334.60565	1466.55737	-955.02679	281.20801	1295.09045	-995.62421	537.02094	1357.73218	-765.53253	384.02338	1509.14111	-678.89246	344.00162	1314.78967	-665.01782	296.65738	1179.25623	-670.51575	218.09314	1069.87561	-724.07019	112.21679	998.74390	-686.92303	145.53259	972.42572	-690.58453	92.47878	933.58679	-1130.02148	416.83673	1500.14453	-1210.09216	466.02417	1312.93201	-1234.34705	457.48727	1167.62976	-1259.16553	431.35587	1050.08167	-1245.07739	384.21774	921.95459	-1276.47278	431.72794	920.67035	-1279.81726	396.61032	856.21082	-823.00397	295.86166	991.75317	-1077.97705	296.30231	986.42657	-904.30743	504.12054	1041.15356	-1019.89001	509.20663	1042.57117	-790.81232	372.82626	679.16577	-829.35687	418.65012	479.79950	-838.23639	483.08325	294.99774	-887.45135	486.36346	72.63439	-937.94751	524.57623	46.71445	-887.53015	329.31866	35.03179	-1177.47839	320.27475	692.58856	-1163.60852	270.02063	493.28772	-1157.38208	352.29495	326.05264	-1119.17627	405.05200	141.31616	-1054.08972	431.31155	90.56425	-1173.07275	282.96631	54.51990	-970.73059	394.06351	1816.44849	-3360.17700	2845.20508	1033.99658																											 
54	0.530	-891.15680	276.11566	1748.66443	-1033.71143	289.09833	1730.94434	-871.32867	405.78366	1675.11182	-1011.76331	431.19525	1655.81641	-937.45789	465.55353	1532.49268	-946.59448	514.54120	1256.33936	-940.44635	326.09119	1465.70764	-954.56354	272.69534	1294.19373	-995.64520	528.45978	1357.19897	-765.63605	375.00015	1508.86487	-678.83478	332.79077	1315.30969	-664.61285	282.56244	1180.81982	-670.73138	201.93602	1073.12463	-724.75470	95.07022	1004.12195	-687.41742	127.85075	977.10236	-691.32599	73.87469	939.60706	-1130.09399	408.19006	1499.19958	-1209.26514	459.31564	1312.36938	-1233.31885	451.98547	1166.80994	-1259.00500	427.30991	1049.39868	-1245.99817	380.83453	920.96527	-1276.03687	429.21008	919.91925	-1280.61084	394.47372	855.30792	-822.34125	288.67923	990.76959	-1077.70190	287.26105	985.70453	-905.71442	496.56577	1040.38879	-1021.04156	500.77173	1041.87134	-791.19354	368.03436	678.55774	-829.95868	414.87543	479.45273	-838.70599	480.81625	295.26376	-887.90088	485.97513	72.90833	-938.70862	524.05176	46.92215	-887.36554	329.05457	34.91084	-1177.43762	309.36923	692.58514	-1162.26819	257.29858	492.91849	-1157.63110	332.19849	321.94153	-1121.05725	376.72296	134.74202	-1056.18396	400.90863	82.51871	-1173.69275	249.84354	53.73969	-971.50391	384.60022	1815.76892	-3357.65503	2845.80664	1033.98865																											 
55	0.540	-891.95483	266.53964	1747.70605	-1034.29431	279.81851	1729.81763	-871.82166	396.63995	1674.62109	-1012.13403	422.04025	1655.01636	-937.61267	456.61838	1531.93091	-947.45892	506.14435	1255.85791	-940.52643	317.01886	1464.97852	-954.24817	264.22549	1293.25635	-995.91095	519.87921	1356.63049	-765.86969	365.95502	1508.46826	-678.83405	321.51901	1315.88025	-664.29102	268.82745	1182.35620	-670.61255	186.44582	1076.39746	-725.51813	78.31030	1009.28027	-687.93018	110.20633	981.43335	-692.23761	55.53596	945.28137	-1130.24487	399.63358	1498.44458	-1208.61658	452.47205	1311.72253	-1232.43176	446.20526	1166.07251	-1258.86963	423.03271	1048.68127	-1246.98938	377.22235	919.71417	-1276.15796	426.21338	919.34192	-1281.47192	392.04810	854.33234	-821.72614	281.89175	989.61249	-1077.56616	278.28671	984.92297	-907.10522	488.97134	1039.49390	-1022.13739	492.34601	1040.94641	-791.65796	362.93851	677.98065	-830.71912	410.87607	479.08804	-839.23090	478.41580	295.46686	-888.33978	485.57870	73.22016	-939.05865	524.10150	47.50958	-887.21405	328.79315	34.82345	-1177.39551	298.68903	692.32715	-1161.03357	244.97916	492.35175	-1157.90527	312.19437	317.83917	-1123.09937	348.08011	128.65134	-1058.23340	370.46414	75.35693	-1174.39661	217.15817	53.32619	-972.21570	375.12695	1814.97827	-3360.23218	2845.10425	1033.95374																											 
56	0.550	-892.52057	257.43945	1746.96082	-1034.97974	270.57477	1728.63025	-872.48730	387.23492	1673.73584	-1012.64276	412.89090	1654.13220	-937.85046	447.68936	1531.27771	-948.28119	497.72577	1255.28528	-940.69470	308.24274	1464.05188	-954.01306	255.69131	1292.16992	-996.27954	511.33545	1356.02881	-766.16589	356.98468	1507.97144	-678.80176	309.93637	1316.35400	-664.14917	255.29868	1183.73718	-670.90417	171.15753	1078.93640	-726.35754	62.21214	1014.07788	-688.58423	93.03574	985.66711	-693.10236	37.82403	950.58752	-1130.75281	390.96436	1497.63501	-1208.44653	445.35544	1311.09802	-1231.97815	440.39908	1165.63721	-1258.79517	418.47192	1047.95911	-1248.11572	373.41089	918.67456	-1275.90039	423.23233	918.60785	-1282.28418	389.63318	853.55310	-821.88116	274.30099	988.79028	-1077.64966	269.33548	984.15002	-908.43372	481.34256	1038.56226	-1023.16223	484.07410	1039.89575	-792.12225	357.68835	677.49646	-831.17914	407.28622	478.84863	-839.82440	476.22263	295.77405	-888.77747	485.26428	73.59573	-939.34894	523.36298	47.86947	-887.07196	328.58679	34.77859	-1177.09558	288.36328	691.75330	-1159.55493	233.17500	491.44812	-1158.22083	292.45428	313.97964	-1124.85571	319.65283	123.06263	-1060.33447	340.03632	68.81707	-1175.13782	184.85181	53.40026	-973.10333	365.70941	1814.21094	-3360.15869	2845.18164	1034.06506																											 
57	0.560	-893.55676	247.78293	1745.76868	-1035.68823	261.31982	1727.39209	-872.92102	378.19586	1673.15063	-1013.14374	403.73895	1653.16296	-938.18176	438.79971	1530.54370	-949.18060	489.28506	1254.60339	-940.93951	299.66260	1462.90613	-953.99890	247.14929	1291.02002	-996.71106	502.66260	1355.30957	-766.67657	347.86996	1507.24353	-679.18512	298.99338	1316.74927	-664.19507	242.05617	1184.95850	-671.06018	156.09348	1081.65247	-727.10913	46.57204	1018.45917	-689.13171	76.85728	989.61334	-693.91016	20.81125	955.35846	-1130.78125	382.11145	1496.55457	-1207.77197	437.83621	1310.26111	-1231.48218	434.17044	1164.93994	-1258.90063	413.64145	1047.27185	-1249.13123	369.64450	917.64331	-1276.11255	419.69736	917.91388	-1283.27100	386.83469	852.62164	-821.49445	267.22141	987.97632	-1077.84412	260.35181	983.34619	-909.75085	473.51639	1037.52844	-1024.10693	475.61777	1038.68945	-792.52576	352.60739	676.72827	-831.94891	403.43265	478.55917	-840.46191	474.20215	296.17685	-889.20551	484.98022	73.93668	-939.80768	523.54791	47.80450	-886.96899	328.41071	34.72312	-1177.16650	278.25958	690.93579	-1157.95227	221.65836	490.27997	-1158.51697	272.76556	310.16315	-1126.49036	291.29019	117.88771	-1062.92322	309.79333	62.64254	-1175.88721	153.04662	54.23028	-973.88843	356.29242	1813.09204	-3360.30005	2845.19800	1033.92908																											 
58	0.570	-894.53406	238.27051	1744.74072	-1036.57227	251.92229	1725.98218	-873.53760	368.87146	1672.31409	-1013.72632	394.58731	1651.97180	-938.57996	429.85483	1529.67224	-950.06317	480.77371	1253.85010	-941.32025	290.59637	1461.86548	-954.08826	238.50839	1289.78455	-997.35486	493.95740	1354.57446	-767.09857	338.97638	1506.54480	-679.68494	287.88031	1316.89136	-664.28131	229.14098	1186.02893	-671.53015	141.38516	1083.95300	-728.00183	31.38675	1022.40448	-689.79718	60.82879	993.11554	-694.75500	4.54497	959.94580	-1131.23486	373.18094	1495.40942	-1207.65979	430.26450	1309.36414	-1231.07190	427.62186	1164.15967	-1259.24194	408.79309	1046.69629	-1250.52075	365.16437	916.44171	-1276.06213	416.07416	917.10895	-1284.56250	383.80298	851.88098	-821.85498	259.54797	987.19708	-1078.18628	251.37747	982.47540	-910.94751	465.49100	1036.50732	-1025.05737	467.26520	1037.43774	-792.97687	347.16006	676.08429	-832.52582	399.72983	478.36426	-840.96802	472.40979	296.62006	-889.54071	484.67505	74.30814	-940.44946	523.23907	49.03398	-886.86688	328.20642	34.69458	-1176.77014	268.53839	689.73676	-1156.37427	210.45480	488.93710	-1158.84851	253.16574	306.62875	-1128.23169	263.29691	113.44553	-1065.02783	279.80917	57.42966	-1176.55920	121.73524	55.81307	-974.75433	346.87006	1812.01672	-3357.50366	2845.74463	1034.13123																											 
